# xmcd
#
# Track frame offsets: 
#        150
#        16369
#        31812
#        44604
#        61169
#        70131
#        87836
#        102741
#        119040
#        131267
#        149235
#        166868
#        184371
#        197422
#
# Disc length: 2877 seconds
#
# Revision: 0
# Processed by: cddbd v1.5.2PL0 Copyright (c) Steve Scherf et al.
# Submitted via: ExactAudioCopyFreeDBPlugin 1.0
#
DISCID=cc0b3b0e
DTITLE=Lil' Red and The Roosters - Out Of The Coop!
DYEAR=2013
DGENRE=Blues
TTITLE0=Sugar Coated Love
TTITLE1=The Come Back
TTITLE2=Shake Your Hips
TTITLE3=Don't Lose Your Cool
TTITLE4=Slow Down
TTITLE5=Hound Dog
TTITLE6=Trouble In My Way
TTITLE7=Gritty Pretty
TTITLE8=Fever
TTITLE9=Sneakin' Up On You
TTITLE10=Ain't Your Pet No More
TTITLE11=Keep On Lovin' You
TTITLE12=Trouble No More
TTITLE13=Why Don't You Do Right
EXTD=
EXTT0=
EXTT1=
EXTT2=
EXTT3=
EXTT4=
EXTT5=
EXTT6=
EXTT7=
EXTT8=
EXTT9=
EXTT10=
EXTT11=
EXTT12=
EXTT13=
PLAYORDER=
